<svg xmlns="http://www.w3.org/2000/svg" width="805" height="600"><rect width="805" height="600" x="0" y="0" fill="#FFFFFF" id="background"/><g transform="translate(402.5,300)" id="viz"><path fill="#ff7f0e" display="" d="M3.999492686763021,-185.29017378882503A185.33333333333334,185.33333333333334,0,1,1,-54.26148125278714,177.21212175440448L-26.465903432847572,92.97311654412599A96.66666666666667,96.66666666666667,0,1,0,3.9994926867630136,-96.58389359874127Z"><title>Filter / Discard
n = 38</title></path><path fill="#d62728" display="" d="M-61.857635314410444,174.7056879376108A185.33333333333334,185.33333333333334,0,0,1,-158.23831959228036,-96.48356677204566L-83.51475541547354,-48.67987338046471A96.66666666666667,96.66666666666667,0,0,0,-34.06205749447088,90.46668272733231Z"><title>Process / Aggregate
n = 20</title></path><path fill="#1f77b4" display="" d="M-153.92767728577851,-103.22167703466975A185.33333333333334,185.33333333333334,0,0,1,-20.83225859943686,-184.15879410468196L-12.765765224421564,-95.82003800186783A96.66666666666667,96.66666666666667,0,0,0,-79.20411310897174,-55.41798364308879Z"><title>?
n = 10</title></path><path fill="#2ca02c" display="" d="M-12.866414281901335,-184.886180738234A185.33333333333334,185.33333333333334,0,0,1,-3.9994926867630443,-185.29017378882503L-3.999492686762982,-96.58389359874127A96.66666666666667,96.66666666666667,0,0,0,-4.79992090688613,-96.54742463541989Z"><title>Full Data
n = 1</title></path><path fill="#ff7f0e" display="" d="M3.9994926867630096,-281.9716369748002A282,282,0,1,1,-8.838478116681523,281.86145764290114L-4.8022581720988216,193.27368184578648A193.33333333333334,193.33333333333334,0,1,0,3.9994926867630247,-193.29196009153176Z"><title>filter-black-white
n = 35</title></path><path fill="#ff7f0e" display="" d="M-16.829173930865483,281.49738703015464A282,282,0,0,1,-59.741983600061566,275.5991571023576L-39.727833686194295,189.20749723089693A193.33333333333334,193.33333333333334,0,0,0,-12.792953986282823,192.90961123303998Z"><title>filter-black-white-hispanic
n = 2</title></path><path fill="#ff7f0e" display="" d="M-67.53458781326916,273.7938630592217A282,282,0,0,1,-84.55603455806502,269.0246773435763L-56.768792723844435,184.8109356895716A193.33333333333334,193.33333333333334,0,0,0,-47.52043789940193,187.40220318776102Z"><title>filter-black-white-hispanic-other
n = 1</title></path><path fill="#d62728" display="" d="M-92.15218861968818,266.5182435267826A282,282,0,0,1,-194.24160872766961,204.43629188303848L-132.25341078962785,141.02061236673075A193.33333333333334,193.33333333333334,0,0,0,-64.36494678546765,182.30450187277796Z"><title>process-black-other
n = 5</title></path><path fill="#d62728" display="" d="M-199.96175916947692,198.84490154350985A282,282,0,0,1,-212.02722120909746,185.92594618919773L-144.52915405126222,128.40989606336535A193.33333333333334,193.33333333333334,0,0,0,-137.9735612314351,135.42922202720212Z"><title>process-black-white-hispanic-other
n = 1</title></path><path fill="#d62728" display="" d="M-217.215219856241,179.83756076750177A282,282,0,0,1,-228.05590936038305,165.8749595502852L-155.60728322485872,114.73513492019951A193.33333333333334,193.33333333333334,0,0,0,-149.7171526984057,122.32151064166945Z"><title>process-black-white-other
n = 1</title></path><path fill="#d62728" display="" d="M-232.66876682218012,159.34002932548358A282,282,0,0,1,-239.67994360812324,-148.58507540128943L-164.978789275353,-100.79571849546215A193.33333333333334,193.33333333333334,0,0,0,-160.22014068665575,108.20020469539796Z"><title>process-white-other
n = 13</title></path><path fill="#1f77b4" display="" d="M-235.3693013016213,-155.32318566391368A282,282,0,0,1,-29.623974142071337,-280.4396907643957L-21.55989993509836,-192.12742774670753A193.33333333333334,193.33333333333334,0,0,0,-160.66814696885115,-107.53382875808632Z"><title>not-mentioned
n = 10</title></path><path fill="#2ca02c" display="" d="M-21.65812982453585,-281.16707739794776A282,282,0,0,1,-3.9994926867630443,-281.9716369748002L-3.999492686763091,-193.29196009153176A193.33333333333334,193.33333333333334,0,0,0,-13.594055617562743,-192.85481438025963Z"><title>none
n = 1</title></path></g><g id="labels" transform="translate(402.5,300)" text-anchor="middle"><text transform="rotate(90) translate(48.333333333333336,0) rotate(180)"><tspan x="0" y="4" style="font-family: Arial, sans-serif; font-size: 10px; fill: black; font-weight: normal; font-style: italic;"/></text><text transform="rotate(9.130434782608688) translate(145,0) rotate(0)"><tspan x="0" y="4" style="font-family: Arial, sans-serif; font-size: 10px; fill: black; font-weight: normal; font-style: italic;">Filter / Discard
n = 38</tspan></text><text transform="rotate(160.43478260869563) translate(145,0) rotate(180)"><tspan x="0" y="4" style="font-family: Arial, sans-serif; font-size: 10px; fill: black; font-weight: normal; font-style: italic;">Process / Aggregate
n = 20</tspan></text><text transform="rotate(238.69565217391306) translate(145,0) rotate(180)"><tspan x="0" y="4" style="font-family: Arial, sans-serif; font-size: 10px; fill: black; font-weight: normal; font-style: italic;">?
n = 10</tspan></text><text transform="rotate(267.3913043478261) translate(145,0) rotate(180)"><tspan x="0" y="4" style="font-family: Arial, sans-serif; font-size: 10px; fill: black; font-weight: normal; font-style: italic;">Full Data
n = 1</tspan></text><text transform="rotate(1.3043478260869534) translate(241.66666666666669,0) rotate(0)"><tspan x="0" y="4" style="font-family: Arial, sans-serif; font-size: 10px; fill: black; font-weight: normal; font-style: italic;">filter-black-white
n = 35</tspan></text><text transform="rotate(97.82608695652175) translate(241.66666666666669,0) rotate(180)"><tspan x="0" y="4" style="font-family: Arial, sans-serif; font-size: 10px; fill: black; font-weight: normal; font-style: italic;">filter-black-white-hispanic
n = 2</tspan></text><text transform="rotate(105.6521739130435) translate(241.66666666666669,0) rotate(180)"><tspan x="0" y="4" style="font-family: Arial, sans-serif; font-size: 10px; fill: black; font-weight: normal; font-style: italic;">filter-black-white-hispanic-other
n = 1</tspan></text><text transform="rotate(121.30434782608694) translate(241.66666666666669,0) rotate(180)"><tspan x="0" y="4" style="font-family: Arial, sans-serif; font-size: 10px; fill: black; font-weight: normal; font-style: italic;">process-black-other
n = 5</tspan></text><text transform="rotate(136.9565217391304) translate(241.66666666666669,0) rotate(180)"><tspan x="0" y="4" style="font-family: Arial, sans-serif; font-size: 10px; fill: black; font-weight: normal; font-style: italic;">process-black-white-hispanic-other
n = 1</tspan></text><text transform="rotate(142.1739130434782) translate(241.66666666666669,0) rotate(180)"><tspan x="0" y="4" style="font-family: Arial, sans-serif; font-size: 10px; fill: black; font-weight: normal; font-style: italic;">process-black-white-other
n = 1</tspan></text><text transform="rotate(178.695652173913) translate(241.66666666666669,0) rotate(180)"><tspan x="0" y="4" style="font-family: Arial, sans-serif; font-size: 10px; fill: black; font-weight: normal; font-style: italic;">process-white-other
n = 13</tspan></text><text transform="rotate(238.69565217391306) translate(241.66666666666669,0) rotate(180)"><tspan x="0" y="4" style="font-family: Arial, sans-serif; font-size: 10px; fill: black; font-weight: normal; font-style: italic;">not-mentioned
n = 10</tspan></text><text transform="rotate(267.3913043478261) translate(241.66666666666669,0) rotate(180)"><tspan x="0" y="4" style="font-family: Arial, sans-serif; font-size: 10px; fill: black; font-weight: normal; font-style: italic;">none
n = 1</tspan></text></g></svg>